<svg xmlns="http://www.w3.org/2000/svg" xmlns:xlink="http://www.w3.org/1999/xlink" version="1.1" id="Layer_1" x="0px" y="0px" viewBox="0 0 220 56" style="enable-background:new 0 0 220 56;" xml:space="preserve">
<style type="text/css">
	.st0{fill:#06D6A9;}
</style>
<path class="st0" d="M45.2,44.7c-3.3,3.2-8.1,5.2-11.9,5.5c-2.7,0.3-5.5,0.3-8.2,0c-4-0.5-6.9-1.6-9.8-2.7c1.4-1.4,2.9-3.3,3.5-5  c0.4-1,0.3-2.1-0.1-3c-3.1-6.3-1.7-13.8,3.3-18.7c3.6-3.6,8.6-5.2,13.7-4.6c3.7,0.5,7.1,2.1,9.8,4.7C51.9,27.4,51.7,38.3,45.2,44.7z   M49.1,16.8c-2.3-2.3-5-4-7.9-5.1C42.9,6.8,48.9,5,48.9,5s-13.8-7.2-29-4.3c-5.1,0.8-10,3.9-13.5,8c-7.7,8.9-6.7,22.4,2.3,30  c1.4,1.2,4.5,3,4.5,3.1c-2,5.2-8.5,6.6-8.5,6.6s8.6,5.4,20.1,6.8c3.1,0.4,6.3,0.5,9.6,0.1c5.3-0.4,10.6-3.3,14.7-7.2  C57.7,39.5,57.8,25.5,49.1,16.8z"/>
</svg>