<?xml version="1.0" standalone="no"?>
<!DOCTYPE svg PUBLIC "-//W3C//DTD SVG 20010904//EN"
 "http://www.w3.org/TR/2001/REC-SVG-20010904/DTD/svg10.dtd">
<svg version="1.0" xmlns="http://www.w3.org/2000/svg"
 width="500.000000pt" height="500.000000pt" viewBox="0 0 500.000000 500.000000"
 preserveAspectRatio="xMidYMid meet">
<metadata>
Created by potrace 1.15, written by Peter Selinger 2001-2017
</metadata>
<g transform="translate(0.000000,500.000000) scale(0.100000,-0.100000)"
fill="#ffffff" stroke="none">
<path d="M2170 4984 c-272 -37 -521 -114 -775 -239 -268 -132 -455 -265 -665
-475 -210 -210 -343 -397 -475 -665 -179 -364 -255 -693 -255 -1105 0 -412 76
-741 255 -1105 132 -268 265 -455 475 -665 210 -210 397 -343 665 -475 364
-179 693 -255 1105 -255 412 0 741 76 1105 255 268 132 455 265 665 475 210
210 343 397 475 665 179 364 255 693 255 1105 0 412 -76 741 -255 1105 -132
268 -265 455 -475 665 -210 210 -397 343 -665 475 -259 128 -507 203 -788 240
-149 19 -501 19 -647 -1z m680 -269 c396 -68 759 -231 1070 -482 l85 -68 -61
-6 c-125 -12 -234 -92 -296 -216 -28 -58 -33 -78 -36 -164 -6 -151 23 -234
168 -474 183 -303 238 -481 227 -730 -7 -140 -32 -249 -135 -585 -38 -124
-109 -359 -158 -522 -49 -164 -91 -294 -95 -290 -8 8 -800 2364 -797 2367 2 1
61 8 132 14 148 14 180 26 196 75 14 42 5 77 -25 106 -29 28 -32 28 -320 11
-240 -14 -627 -10 -860 8 -145 12 -185 -9 -185 -96 1 -74 27 -88 193 -104
l126 -12 40 -111 c23 -61 101 -275 174 -476 l134 -365 -241 -722 c-132 -397
-244 -719 -247 -715 -4 4 -31 81 -62 172 -30 91 -210 627 -400 1191 l-345
1026 136 12 c154 14 181 25 196 84 12 48 -8 95 -48 112 -24 10 -56 11 -136 4
-154 -13 -640 -24 -640 -14 0 19 152 207 250 309 363 377 838 613 1360 676
115 13 488 5 600 -15z m1764 -1474 c95 -271 120 -429 120 -741 0 -260 -8 -333
-60 -541 -55 -223 -169 -486 -292 -674 -168 -258 -426 -514 -684 -679 l-57
-36 29 83 c107 315 674 1945 695 2000 30 81 88 301 107 407 8 45 13 156 13
279 l0 204 46 -99 c26 -55 63 -146 83 -203z m-3634 -1306 c287 -787 525 -1434
528 -1439 3 -5 -30 10 -73 33 -481 259 -871 716 -1049 1230 -95 272 -120 429
-120 741 0 305 25 464 112 720 48 139 64 174 73 158 4 -7 242 -657 529 -1443z
m1899 -583 c184 -504 340 -929 347 -943 l13 -26 -87 -26 c-223 -67 -349 -87
-587 -94 -213 -6 -369 8 -560 52 -60 14 -113 25 -117 25 -5 0 -8 6 -8 13 -1
17 653 1917 660 1917 3 0 155 -413 339 -918z"/>
</g>
</svg>
